<svg version="1.0" xmlns="http://www.w3.org/2000/svg" width="244" height="244" viewBox="0 0 183 183"><path d="M83 34.1c-1.4.4-5.3.5-8.7.2-4.4-.4-6.3-.2-6.3.6 0 .7 1.3 1 3.8.7 2-.3 5.1.2 6.7.9 2.8 1.3 2.4 1.4-5 .9-11.2-.7-16.6-1.4-16.1-2.2.2-.4-2.1-.7-5.2-.6-3.8 0-5.6.4-5.5 1.2.3 1.1-8.3 4.1-13.4 4.7-1.4.1-2.8.7-3.2 1.2-.3.5-3.2 2.6-6.5 4.7-4.4 2.9-5.5 4.1-4.5 4.8 1 .7.9.8-.5.4-1-.4-2.9.1-4.2.9-1.3.9-2.4 1.2-2.4.8-.1-1.1-1.6 1.8-2.4 4.4-.6 1.7-.3 2.3.8 2.3 1.2 0 1.5.9 1.3 4-.4 4.8 0 5.1 1.4 1 .6-1.7 1.6-3 2.2-3 .6 0 1.8-.7 2.8-1.6 1.7-1.6 1.8-1.5.6 1.7C18 64 16.8 66 16 66.7c-1.3 1.1-1.3 1.2-.1 1.3 1.1 0 .9.4-.5 1.5-1.3 1-1.5 1.4-.5 1.5.7 0 .1 1-1.5 2.2-3.6 2.8-5.2 4.9-5 6.3.2.5.1.7-.1.2-.3-.4-.9-.5-1.4-.1-.5.3-.9-.4-.9-1.5s-.3-2.2-.8-2.5c-.4-.2-.7 1.7-.7 4.2 0 2.6-.3 6-.7 7.7-.6 2.6-.5 2.5 1-.7 1.9-4.1 3.9-4.5 3.4-.7-.2 1.3-.3 3.6-.4 5.1 0 1.8-.4 2.5-1.2 2.1-.6-.3-.3.3.7 1.4 1 1.1 1.9 3.4 2 5.2.1 1.7.5 3.1.9 3.1s1 .9 1.3 2c.4 1.1 1.1 1.7 1.7 1.4.6-.4.5-1-.3-1.5-1.1-.7-1-.9.4-.9 1 0 1.8.8 1.8 2 .2 3.5 2.6 10.8 4.2 12.8 1.4 1.7 2 8.8.9 10.8-.6 1.2-1.1.6-2-2.5-1-3.2-1.8-4-3.9-4.3-2.4-.3-2.6-.7-2.8-6-.2-3.5-.9-6.3-1.8-7.2-1.3-1.4-1.6-1.2-2.7 1.4-.9 2.3-1 3.3-.1 4.4.6.8 1 1.8.9 2.4-.5 1.6 7.5 13.3 8.8 12.8.7-.3 1.4.5 1.6 1.7.2 1.6 1.2 2.3 3.8 2.7 1.9.4 4.7 1.8 6.1 3.2 2.8 2.8 9.6 6.7 8.5 4.9-.4-.6 0-1.1.8-1.1.9 0 1.6.4 1.6.8 0 1 8.5 5.2 10.4 5.2.8 0 1.6-.5 1.8-1.1.5-1.5 8.5-1.4 10.3.1 1.1.9 1.2.7.8-.9-.3-1.4-.1-2.1.8-2.1 1.1 0 1.1-.2-.1-1-.8-.5-2.8-1-4.3-1s-3.9-.7-5.2-1.6c-1.5-1-4.1-1.5-6.7-1.3-4.4.3-9.8-.8-9.8-2 0-1.3 4.2-3.3 5.2-2.3.5.5 2.9.7 5.4.4 2.8-.3 4.4-.1 4.4.6 0 .6.8 1.1 1.8 1.1 1.6 0 3.9.5 14.5 3.2 2.3.6 6.4 1.4 9.1 1.7 4.6.7 4.8.8 2.5 1.9-5.8 2.8-9.9 3.7-9.9 2.3 0-1.8-2.5-1.1-3.8 1.1-1.3 2.1-1.3 2.1 5.5 1.4 7.6-.8 15.6-2.2 13.3-2.4-1.3-.1-1.3-.3 0-1 .8-.6 2.7-.7 4.3-.4 4.1.8 13.1-1.6 16-4.3 1.4-1.2 2.8-2 3.1-1.7.3.4.6.1.6-.6 0-1 1-1.1 3.3-.7 2.4.5 5.9-.2 12.3-2.4 4.9-1.7 10.8-3.7 13.1-4.3 2.3-.7 4.5-1.6 4.9-2 .4-.4 1.2-.7 1.8-.7.6 0 .4.5-.4 1s-1 1-.4 1 1.7-.6 2.3-1.4c1-1.2 4.7-1.8 11.6-1.8 1.1 0 4.7.3 7.9.8 5 .6 6.4 1.3 8.5 3.8 1.5 1.6 2.5 3.4 2.4 3.8-.2.4.3.8 1.1.8s1.7 1.1 2 2.5c.4 1.4 1.3 2.5 2.1 2.5 2 0 1.9-4.4-.1-7.5-1.5-2.4-1.5-2.5.2-2.5 4.9 0-7.2-4.4-16.2-5.8-4.1-.7-4.1-.7-2.1-2.7 1.1-1.1 1.7-1.4 1.3-.8-.9 1.6 2.3 1.7 4.4.2 1.3-.9 1.3-1-.2-.6-1.2.4-1.8-.2-2.3-2.4-.6-2.6-.9-39.3-.4-42.9.1-.8.1-3 .1-4.7L166 68l-16.8.5c-17.1.4-21.6 1-19 2.6.7.5-2.9.8-8.7.7-9.9-.1-10-.1-2.8-.7 11-.9 10.9-2.5-.2-2.9l-9.3-.3-.7 15.3c-.5 11.8-.3 35.7.4 42 .1.5 2.6.8 5.8.8 5.4 0 6.6.6 2.7 1.4-3.1.7-10.9 4.4-13.6 6.6-3.6 2.8-14.8 3.7-20.8 1.8-3.7-1.2-5.9-1.3-11.9-.4-5.7.8-7.6.7-7.9-.2-.2-.7-1.7-1.2-3.4-1.2-3.4 0-9.8-2.7-9.8-4.2 0-.6-.7-.8-1.5-.5-.8.4-1.7.1-2.1-.5-.5-.7-.2-.8.6-.3.9.5 1.1.4.6-.3-.4-.7-1.7-1.2-2.9-1.3-1.5-.1-1-.4 1.3-1 2-.5 6.9-.4 11.5.1 10.4 1.3 19.8 1.3 21.1 0 .7-.7 3.5-.7 8.7.1 4.2.6 8.4.8 9.4.3 1.3-.6.5-1-3.2-1.4l-5-.7 4.8-.1 4.7-.2v-7.1c0-3.8-.4-6.8-.9-6.5-2 1.3-10.8-3.2-16.8-8.7-8-7.2-10.8-7.5-15.4-1.7-3.9 4.9-12.6 11-15.7 11-3.4 0-2.6-2.7 1.1-3.9 5.7-1.9 11.8-7.1 13.8-11.8 1-2.4 2.5-4.3 3.4-4.3.8 0 1.5-.9 1.5-1.9 0-3.7-1.2-5.1-4.1-5.1-3.3 0-3.9 1.9-.9 2.7 3 .8 1.3 2.3-2.6 2.3-2.8 0-3.4-.4-3.4-2.1 0-1.4-.5-1.9-1.7-1.7-1.7.3-2.9 2.2-5.3 8.3-1 2.6-1.3 2.8-2.2 1.2-.5-1-.6-2.6-.2-3.5.4-.9.6-2.4.5-3.3-.1-.9.3-2.8.8-4.3 1-2.4 1.4-2.6 4.8-2.1 4.7.7 13.4-.6 13.4-2 0-.6-2.8-1.5-6.2-2-3.4-.6-6.4-1.5-6.6-2.1-.5-1.4 30-1.4 31.3-.1 1.5 1.5-2.1 2.8-6.1 2.2-2.7-.4-4.7-.1-6 .9-2 1.4-1.9 1.4.5 2 4.6.9 11.5 1.7 14.2 1.7 2.1-.1 3.1.6 4.3 2.8 1.7 3.4 1.9 7.9.5 10.1-.9 1.3-1.1 1.3-2 0-.5-.8-1.2-3.1-1.5-5.2-.7-4.2-4.1-6.3-5.7-3.4-1 1.7-6.8 2.3-6.8.6 0-.6.5-1 1-1 .6 0 1-.5 1-1 0-1.4-5.4-1.2-6.8.2-2.3 2.3-1.1 4.9 5 10.8 3.5 3.3 6.6 6 6.9 6 .4 0 3.5 1.6 6.8 3.4l6.1 3.5V92.7c0-10.8.4-15.7 1-14.7.5.8.8 3.7.5 6.5-.3 3.7-.2 4.3.4 2.5 1.4-4 1.2-13.3-.4-16-1.1-1.9-1.4-2.1-1.5-.8 0 1.6-1.9 1.8-25.5 1.6-14-.1-25.7.1-26 .4-.3.2-.6 5.6-.7 11.9-.1 9.6-.5 11.6-2 12.9-1.5 1.3-1.8 3.2-1.9 12.3-.1 9.9-.6 12.8-1.3 8-.2-1.2-1-1.7-2.4-1.5-2.2.3-5.2-3.1-5.2-5.9 0-.9.7-2.3 1.6-3 1.1-.9 1.4-2.3 1-4.8-.3-1.9 0-4.1.6-4.8.6-.8 1.2-3 1.3-5.1.2-4.7 3.2-14.9 4.6-15.8.7-.4.9 2.2.5 8.7l-.6 9.4 1.4-6c.8-3.3 1.5-8.8 1.5-12.2.1-7.4.1-7.3 12.1-7l8.5.2.5-4.3c.4-3.5 1.1-4.6 3.8-6.2 1.8-1.1 3.5-2.7 3.8-3.5 1.3-3.4 14.6.2 21.6 5.8 3.2 2.6 4.4 2.9 10 2.8 13.3-.3 16.8-1.7 16.8-6.8 0-2.5-.8-3.8-3.3-5.7-1.9-1.5-3.9-2.6-4.5-2.6-.6 0-1.6-.9-2.2-2-1.6-3-10.5-7.1-16.3-7.5-6.8-.5-11.1-2.3-9.7-4 1.4-1.7.1-2.4-3-1.4zM45 48.5c0 .3-1.7 1.2-3.7 2-2.1.9-5.3 3-7 4.7-1.8 1.8-3.3 2.7-3.3 2.1 0-2.3 3.7-5.4 8.5-7.3 5.8-2.2 5.5-2.1 5.5-1.5zm-23.6 8c-.6 1.6-2.4 2.1-2.4.7 0-1.1 1.1-2.2 2.1-2.2.5 0 .6.7.3 1.5zm35.1 1.6c.6.6.3 1.5-.7 2.6-1.4 1.4-2.7 1.5-9 .7l-7.3-1 4-2.1c4.1-2.2 10.8-2.3 13-.2zm-15.6 6.5c.2.1-.6 1.8-1.7 3.6S37 73.5 36.7 76c-.8 7-1.8 10-3.4 10-1.2 0-1.4.7-1 2.9.3 1.6.2 4.4-.3 6.3-.8 2.6-1.6 3.4-3.5 3.6-1.4.1-2.5-.3-2.5-.8 0-.6.5-1 1-1 .6 0 1-.5 1-1 0-.6-.9-1-2-1-2.2 0-2.7-2.4-.8-3.6.8-.5.9-.2.5.9s-.1 1.7.8 1.7c.8 0 1.8.7 2.3 1.6.7 1.2 1.1 1.3 1.7.4.4-.7-.2-1.8-1.4-2.7-2.1-1.4-2.1-1.6-.5-4 .9-1.4 1.1-2.3.6-1.9-.6.3-1.3.2-1.7-.4-.4-.6-1.2-.7-1.8-.4-.7.4-.2-.3 1.1-1.5 1.8-1.8 2.1-2.6 1.1-3.7-.9-1.1-.8-1.4.5-1.4.9 0 1.6-.5 1.6-1.2 0-.6-.3-.9-.6-.5-.8.8-3.4-1.8-3.4-3.3 0-.6.7-1.3 1.5-1.6.8-.3 1.7-1.6 2.1-2.7 1.1-3.5 6.4-7.8 8.8-7.1 1.2.4 2.3.8 2.5 1zm105.5 11c-.8 3 1.1 5.4 4.3 5.4 1.7 0 2.2.4 1.7 1.2-.5.9-.2.8 1-.1 1.3-1.1 2-1.1 2.8-.3 1.8 1.8-.1 3-5.2 3.4-3.8.3-4.6.7-4.8 2.5-.4 2.9-1.3 2.9-4.2-.2-2-2.1-3.2-2.5-8.2-2.5-5.1 0-5.9-.2-5.6-1.7.2-1.3 2-2 6.3-2.8 4.7-.8 6.1-1.4 6.3-3 .6-2.8 3.1-5.5 4.8-4.8.9.3 1.2 1.3.8 2.9zm-23.8 1.7c-.6 2.4 1.8 8.7 3.3 8.7 1.8 0 1.2 2.9-.8 4-1.1.5-2.3 1.9-2.6 3-.8 2.6-3.1 2.6-3.8 0-.3-1.4-1.4-2-3.1-2-1.4 0-2.6-.2-2.6-.4s-.3-1.1-.6-2c-.4-1.1-.1-1.6 1-1.6 3.1 0 5.6-3.7 5.6-8.3 0-2.4.3-4.7.7-5 1.2-1.2 3.4 1.6 2.9 3.6zm36.1-1.6c.6 1.9-4.5 4.9-6 3.4-.8-.8-.8-1.1.1-1.1.7 0 1.2-.5 1.2-1.1 0-.5-.4-.7-1-.4-1.1.7-1.4-.8-.3-1.9 1.1-1.1 5.6-.3 6 1.1zM12.6 81.5c.1.8-.4 1.9-1.2 2.6-1.1.9-1.4.7-1.4-1.3 0-3.9 2.1-4.9 2.6-1.3zm143.7 8.4c.3 1.1 0 2.8-.7 3.8-.6 1-1.7 3.5-2.5 5.6-1.1 3.4-1 4.1 1.1 7.9 1.3 2.4 3.4 4.8 4.6 5.4 3.9 1.9 4.4 2.9 2.5 4.6-3.5 3.2-5.1 2.6-8.5-3.2-1.8-3-4-5.5-4.9-5.5-.9 0-4.2 2.4-7.3 5.2-3.1 2.9-6.1 5.3-6.6 5.3-2.5 0-1.8-2.5 1.7-5.5 2.1-1.8 3.5-3.6 3.1-4-.4-.4-2.7-.2-5.2.5-4.7 1.3-6.6.8-6.6-1.6 0-2 4.1-3.4 10.3-3.4 7.8-.1 9.9-2.7 8.5-10.5-.2-1.6.2-1.9 2.3-1.7 2.1.3 2.8-.2 3.3-2.2.8-3.1 4.1-3.5 4.9-.7zm-18.5.3c-.3.7-1.5 1.4-2.9 1.6-5.2.7-5.7 6.2-.5 6.2 2.8 0 4.3-1.1 4.7-3.5.6-2.9 3.2-2.4 4.3.8 1.4 3.9-1.4 6.3-8.2 7-6.7.8-9-1.1-8.6-6.8.4-4.2.9-5.1 3.9-5.8 4.1-1 7.7-.7 7.3.5zm-52.7 1.7c1.9 1.6 2.2 2.2 1.2 3.2-1.1 1-1.8.9-4-.7-1.5-1.1-2.9-2.6-3.1-3.2-.6-1.9 3.3-1.4 5.9.7zM62 91.8c0 1.7-3.9 4.4-5.5 3.9-1.8-.8-2-3.3-.2-4 2-.9 5.7-.8 5.7.1zM18 95c0 1.1-.4 2-1 2-.5 0-1-.9-1-2s.5-2 1-2c.6 0 1 .9 1 2zm27.9 14.8c0 10.9-.1 11.5-1.3 7.9-1.5-3.9-1-21.1.4-20.2.5.3.8 5.8.9 12.3zM122 99.5c0 .9 1.2 2 2.6 2.5 4.3 1.7 2.6 4.2-4.5 6.7-3.5 1.2-6.7 2-7.2 1.7-1.9-1.2-.8-4.6 2.1-6.2 1.6-.9 3.2-2.7 3.5-3.9.6-2.6 3.5-3.2 3.5-.8zm-47.4 1.9c1.7 1.3 1.7 1.5.2 2.1-2.7 1.1-6.3.1-6.6-1.8-.4-2.2 3.5-2.4 6.4-.3zm-44.1 10.9c.4 4 .2 4.7-1.3 4.7-3.3 0-4.7-1.8-4.7-6 0-2.5.6-4.4 1.5-5 2.3-1.4 4 1 4.5 6.3zm49.4-4c5.7 2.9 5.2 7.9-1 8.5-3.3.4-3.3.3-1.5-1.7 5.3-5.8-5.3-7.8-15.1-2.8-3.1 1.7-4.3 1.4-4.3-1 0-3.5 16.5-5.8 21.9-3zM117 124c5.7 0 7.5 1 4.8 2.6-.7.4-.8.3-.4-.4.5-.9-1-1.2-5.3-1.2H110l.2-7.3.2-7.2.3 6.7.4 6.8h5.9zm-44.2-7.4c3 1.2 4.5 4.4 2.1 4.4-.5 0-.7.4-.4 1 .3.5.2 1-.4 1-.6 0-1.5-.9-2.1-2-.6-1.1-2.3-2.3-3.8-2.6-3.3-.8-5.4-2.3-4.6-3.5.6-1 4.2-.3 9.2 1.7zm90.9 2.6c-.3.8-.6.5-.6-.6-.1-1.1.2-1.7.5-1.3.3.3.4 1.2.1 1.9zM45.5 123c.3.5.1 1-.4 1-.6 0-1.1-.5-1.1-1 0-.6.2-1 .4-1 .3 0 .8.4 1.1 1zm90.8 3.7c-.7.2-1.9.2-2.5 0-.7-.3-.2-.5 1.2-.5s1.9.2 1.3.5zm-2.8 3.2c-.7 1.2-6.4 2.5-7.3 1.6-.3-.3 0-1 .8-1.5 1.9-1.2 7.3-1.3 6.5-.1zM122 134c-.8.5-2.2.9-3 .9-1 0-.8-.3.5-.9 2.7-1.2 4.3-1.2 2.5 0zm-87.2 4.3c.8 1 .5 1.3-1.3 1.5-1.3.1-2.7-.3-3.1-1-.4-.6-.3-.8.4-.4.6.3 1.3.2 1.7-.4.8-1.3 1-1.3 2.3.3zm67.5 1.4c-2.4.8-4.3 1.9-4.3 2.4 0 1.6-4.4.9-7-1.1l-2.5-2h3.2c1.7 0 3.3.4 3.5.9.2.5 1.9.3 3.8-.4s4.4-1.3 5.5-1.3c1.1 0 .1.6-2.2 1.5zm-54.5 3.5c-.4 3-2.1 3.2-4.9.8-2.4-2.1-2.4-2.1-.1-1.5 1.3.4 2.2.2 2.2-.4 0-.6.7-1.1 1.6-1.1 1 0 1.4.7 1.2 2.2zm11.2.8c0 .5-.4 1-.9 1-.6 0-1.3-.5-1.6-1-.3-.6.1-1 .9-1 .9 0 1.6.4 1.6 1z"/><path d="M28.7 92.1c.7.7 1.5 1 1.8.7.3-.3-.2-.9-1.2-1.2-1.4-.6-1.5-.5-.6.5zM42 36c0 .5.7 1 1.5 1s1.5-.5 1.5-1c0-.6-.7-1-1.5-1s-1.5.4-1.5 1zM35 38c-2.4 1.5-.7 1.8 2.5.4 2.3-1 2.5-1.3 1-1.3-1.1-.1-2.7.3-3.5.9zM76 68.5c-1.1 1.3-.6 1.5 3.7 1.5 3.7 0 5-.4 5-1.5S83.6 67 81 67c-2.1 0-4.3.7-5 1.5zM7.9 69.7C6.9 69.9 6 71 5.7 72c-.4 1.6-.2 1.7 1.4.7 1.4-.9 3.9-4.2 2.6-3.6-.1.1-.9.3-1.8.6zM99.7 97.2c-.4 2.1-.4 7.3.3 23.3.2 5 .2 5 1.1 1.5.7-3 .2-26-.6-26.8-.1-.2-.5.7-.8 2zM4 96.9c0 .5.5 1.3 1 1.6.6.3 1 .2 1-.4 0-.5-.4-1.3-1-1.6-.5-.3-1-.2-1 .4zM180.5 110c-.3.6.1.7.9.4 1.8-.7 2.1-1.4.7-1.4-.6 0-1.3.4-1.6 1zM175.4 115.2c-3.9 4.4-4.6 6.2-1 2.4 2-2.1 3.6-4 3.6-4.2 0-.8-.7-.3-2.6 1.8zM178.7 119.8c-2 2.2-2.1 3.2-.5 3.2.6 0 .8-.3.5-.7-.4-.3 0-1.5 1-2.5.9-1 1.4-1.8 1.1-1.8-.3 0-1.2.8-2.1 1.8zM172.5 122c-1.6.7-1.7.9-.3.9.9.1 2-.4 2.3-.9.7-1.1.7-1.1-2 0zM110.5 140.1c-1 1.5.3 2.5 1.6 1.2.7-.7.7-1.3.1-1.7-.6-.3-1.4-.1-1.7.5z"/></svg>