<svg xmlns="http://www.w3.org/2000/svg" viewBox="0 0 241 54.7" style="enable-background:new 0 0 241 54.7" xml:space="preserve"><path style="fill:#231815" d="M161.6 40.2h54.3c2 0 3.6-1.6 3.6-3.6V18.2c0-2-1.6-3.6-3.6-3.6h-54.3c-2 0-3.6 1.6-3.6 3.6v18.3c0 2.1 1.6 3.7 3.6 3.7z"/><path style="opacity:.86;fill:none;stroke:#727272;stroke-width:3;stroke-miterlimit:10;enable-background:new" d="M216.4 43.8H161c-3.7 0-6.7-3-6.7-6.7V17.5c0-3.7 3-6.7 6.7-6.7h55.4c3.7 0 6.7 3 6.7 6.7v19.6c0 3.7-3 6.7-6.7 6.7z"/><path style="opacity:.86;fill:#727272;enable-background:new" d="M227.6 22.1c1.9 0 3.5 2.5 3.5 5.7s-1.6 5.7-3.5 5.7V22.1z"/><path style="fill:#231815" d="M16.6 45.2c-2.9 0-5.2-2.4-5.2-5.2v-3.6c0-2.9 2.4-5.2 5.2-5.2 2.9 0 5.2 2.4 5.2 5.2V40c0 2.8-2.3 5.2-5.2 5.2zM32.6 45.2c-2.9 0-5.2-2.3-5.2-5.2V30c0-2.9 2.3-5.2 5.2-5.2 2.9 0 5.2 2.3 5.2 5.2v10c0 2.8-2.4 5.2-5.2 5.2zM48.8 45.2c-2.9 0-5.2-2.3-5.2-5.2V21.4c0-2.9 2.3-5.2 5.2-5.2 2.9 0 5.2 2.3 5.2 5.2v18.5c0 2.9-2.3 5.3-5.2 5.3zM64.9 45.2c-2.9 0-5.2-2.3-5.2-5.2V12.7c0-2.9 2.3-5.2 5.2-5.2 2.9 0 5.2 2.3 5.2 5.2V40c0 2.8-2.3 5.2-5.2 5.2zM138.1 17.5c-14.7-13.4-37.3-13.4-52.1 0-.6.6-.8 1.7-.1 2.5l2.7 2.7c.6.6 1.6.6 2.4.1 12-10.9 30.4-10.9 42.4 0 .6.5 1.6.5 2.4-.1l2.7-2.7c.4-.8.3-1.9-.4-2.5z"/><path style="fill:#231815" d="M128.1 27.5c-8.9-7.7-23.1-7.7-32.2 0-.8.6-.8 1.7-.1 2.5l2.7 2.7c.5.5 1.5.6 2.2.1 6.3-5.3 16.3-5.3 22.6 0 .6.5 1.6.4 2.2-.1l2.7-2.7c.7-.8.7-2-.1-2.5zM106.4 37.8c3.2-3.2 8.3-3.2 11.5 0 .6.6.6 1.8 0 2.6l-4.4 4.4c-.6.6-1.8.6-2.6 0l-4.4-4.4c-.8-.9-.8-1.9-.1-2.6z"/></svg>